<mxfile host="65bd71144e">
    <diagram name="analysis_04_logout" id="0">
        <mxGraphModel dx="243" dy="323" grid="1" gridSize="10" guides="1" tooltips="1" connect="1" arrows="1" fold="1" page="1" pageScale="1" pageWidth="827" pageHeight="1169" math="0" shadow="0">
            <root>
                <mxCell id="0"/>
                <mxCell id="1" parent="0"/>
                <mxCell id="login" value="LoginScreen\n- 表示: ログイン画面" style="rounded=1;whiteSpace=wrap;html=1;fillColor=#E1D5E7;" parent="1" vertex="1">
                    <mxGeometry x="700" y="30" width="180" height="60" as="geometry"/>
                </mxCell>
                <mxCell id="e1" style="edgeStyle=orthogonalEdgeStyle;rounded=0;orthogonalLoop=1;html=1;" parent="1" edge="1">
                    <mxGeometry relative="1" as="geometry">
                        <mxPoint x="179" y="60" as="sourcePoint"/>
                        <mxPoint x="220" y="60" as="targetPoint"/>
                    </mxGeometry>
                </mxCell>
                <mxCell id="e2" style="edgeStyle=orthogonalEdgeStyle;rounded=0;orthogonalLoop=1;html=1;" parent="1" edge="1">
                    <mxGeometry relative="1" as="geometry">
                        <mxPoint x="400" y="60" as="sourcePoint"/>
                        <mxPoint x="460" y="60" as="targetPoint"/>
                    </mxGeometry>
                </mxCell>
                <mxCell id="e3" style="edgeStyle=orthogonalEdgeStyle;rounded=0;orthogonalLoop=1;html=1;" parent="1" target="login" edge="1">
                    <mxGeometry relative="1" as="geometry">
                        <mxPoint x="640" y="60" as="sourcePoint"/>
                    </mxGeometry>
                </mxCell>
                <mxCell id="2" value="ユーザー" style="shape=umlActor;verticalLabelPosition=bottom;verticalAlign=top;html=1;" vertex="1" parent="1">
                    <mxGeometry x="120" y="30" width="30" height="60" as="geometry"/>
                </mxCell>
                <mxCell id="4" value="" style="shape=umlBoundary;whiteSpace=wrap;html=1;" vertex="1" parent="1">
                    <mxGeometry x="260" y="20" width="100" height="80" as="geometry"/>
                </mxCell>
                <mxCell id="5" value="Web訪問者サイト&lt;div&gt;システムメニュー&lt;/div&gt;" style="text;html=1;align=center;verticalAlign=middle;resizable=0;points=[];autosize=1;strokeColor=none;fillColor=none;" vertex="1" parent="1">
                    <mxGeometry x="260" y="123" width="120" height="40" as="geometry"/>
                </mxCell>
                <mxCell id="6" value="" style="ellipse;shape=umlControl;whiteSpace=wrap;html=1;" vertex="1" parent="1">
                    <mxGeometry x="500" y="15" width="90" height="95" as="geometry"/>
                </mxCell>
                <mxCell id="7" value="ログアウト画面表示" style="text;html=1;align=center;verticalAlign=middle;resizable=0;points=[];autosize=1;strokeColor=none;fillColor=none;" vertex="1" parent="1">
                    <mxGeometry x="480" y="120" width="130" height="30" as="geometry"/>
                </mxCell>
            </root>
        </mxGraphModel>
    </diagram>
</mxfile>